<?xml version="1.0" encoding="UTF-8" standalone="no"?>
<!-- Created with Inkscape (http://www.inkscape.org/) -->

<svg
   version="1.1"
   id="svg1"
   width="115.67508"
   height="114.00305"
   viewBox="0 0 115.67508 114.00305"
   xmlns="http://www.w3.org/2000/svg"
   xmlns:svg="http://www.w3.org/2000/svg">
  <defs
     id="defs1" />
  <g
     id="internet"
     transform="translate(-350.59897,-1431.2061)">
    <rect
       style="fill:#000;fill-opacity:1;stroke:none;stroke-width:1.11814;stroke-linecap:round;stroke-linejoin:bevel;stroke-dasharray:none;stroke-dashoffset:0;stroke-opacity:1;paint-order:stroke fill markers"
       id="rect11"
       width="52.741711"
       height="86.581665"
       x="-70.048782"
       y="1502.9745"
       rx="6.6923079"
       transform="matrix(0.96072632,-0.27749764,0.27698977,0.96087287,0,0)" />
    <rect
       style="fill:#fff;fill-opacity:1;stroke:none;stroke-width:0.742809;stroke-linecap:round;stroke-linejoin:bevel;stroke-dasharray:none;stroke-dashoffset:0;stroke-opacity:1;paint-order:stroke fill markers"
       id="rect12"
       width="14.23576"
       height="4.1498117"
       x="715.73425"
       y="1733.5979"
       transform="matrix(0.96602597,-0.258445,-0.17590018,0.98440801,0,0)"
       rx="2.1157238"
       ry="2.0749059" />
    <g
       id="g12">
      <path
         style="fill:#fe6600;fill-opacity:1;stroke:none;stroke-width:0.6;stroke-linecap:round;stroke-linejoin:bevel;stroke-dasharray:none;stroke-dashoffset:0;stroke-opacity:1;paint-order:stroke fill markers"
         d="m 390.14968,1508.8201 c 16.06648,8.5387 49.78272,23.1086 49.78272,23.1086 0,0 19.42754,-49.4497 26.1359,-72.1646 0.72157,-2.4433 -0.51662,-5.9015 -2.74742,-7.1319 -14.20893,-7.8366 -27.35762,-14.4931 -42.2089,-19.9021 -2.75532,-1.0035 -7.65504,-2.805 -8.79651,-0.1039 -9.65436,22.8454 -17.29688,45.6354 -25.14055,65.9995 -1.27233,3.3033 -0.15106,8.5331 2.97476,10.1944 z"
         id="path8" />
      <g
         id="g11">
        <path
           style="fill:#000000;fill-opacity:1;stroke:none;stroke-width:0.6;stroke-linecap:round;stroke-linejoin:bevel;stroke-dasharray:none;stroke-dashoffset:0;stroke-opacity:1;paint-order:stroke fill markers"
           d="m 412.7307,1475.1809 c -0.87432,0.4401 -2.07393,-0.6596 -2.49963,-1.541 -0.38145,-0.7898 -0.42131,-2.1301 0.31096,-2.6128 2.09914,-1.3838 5.10154,-2.2698 7.6539,-2.5933 3.63755,-0.4611 6.04499,-0.5692 8.855,0.3414 2.79586,0.906 5.24259,2.8286 7.33521,4.8922 2.38317,2.3501 4.39882,5.1861 5.68741,8.2751 0.67544,1.6192 1.35132,3.4545 0.98501,5.1703 -0.12265,0.5745 -0.45611,1.2444 -1.00803,1.4455 -0.66717,0.2432 -1.67078,0.042 -2.05715,-0.5535 -1.82386,-2.8125 -2.39861,-6.3 -4.60728,-8.8365 -1.85635,-2.1319 -4.03186,-4.1947 -6.64471,-5.2785 -2.33715,-0.9694 -5.02386,-1.1335 -7.54048,-0.8715 -2.26179,0.2355 -4.0165,0.9275 -6.47021,2.1626 z"
           id="path9" />
        <path
           style="fill:#000000;fill-opacity:1;stroke:none;stroke-width:0.6;stroke-linecap:round;stroke-linejoin:bevel;stroke-dasharray:none;stroke-dashoffset:0;stroke-opacity:1;paint-order:stroke fill markers"
           d="m 413.82939,1480.1919 c -0.84529,0.724 -0.6418,2.3871 -0.0639,3.3383 0.47778,0.7864 1.57445,1.4675 2.4738,1.2248 1.76203,-0.4756 3.09564,-1.6911 4.78978,-1.6999 1.57592,-0.01 3.23178,0.5622 4.47176,1.5348 1.36103,1.0676 2.19853,2.7992 2.8052,4.3658 0.3709,0.9578 0.80122,1.9958 1.61255,2.6256 0.68123,0.5288 1.65935,1.055 2.47146,0.7649 0.96086,-0.3432 1.55899,-1.5409 1.68889,-2.5529 0.24279,-1.8916 -0.9162,-3.7509 -1.8493,-5.4141 -0.88224,-1.5726 -1.97288,-2.6925 -3.4574,-4.1603 -1.21821,-1.2045 -2.98481,-1.7801 -4.64674,-2.1958 -1.69922,-0.425 -3.53165,-0.6034 -5.24846,-0.2562 -1.82961,0.37 -3.60047,1.1854 -5.04765,2.425 z"
           id="path10" />
        <ellipse
           style="fill:#000000;fill-opacity:1;stroke:none;stroke-width:0.649066;stroke-linecap:round;stroke-linejoin:bevel;stroke-dasharray:none;stroke-dashoffset:0;stroke-opacity:1;paint-order:stroke fill markers"
           id="path11"
           cx="420.13074"
           cy="1492.5105"
           rx="3.858438"
           ry="4.0304742" />
      </g>
    </g>
  </g>
</svg>
