<?xml version="1.0" encoding="UTF-8" standalone="no"?>
<!-- Created with Inkscape (http://www.inkscape.org/) -->

<svg
   version="1.1"
   id="svg1"
   width="252.76083"
   height="131.77657"
   viewBox="0 0 252.76083 131.77657"
   xmlns="http://www.w3.org/2000/svg"
   xmlns:svg="http://www.w3.org/2000/svg">
  <defs
     id="defs1" />
  <g
     id="g1"
     transform="translate(-50.202877,-85.213936)">
    <g
       id="g2">
      <path
         style="fill:#f27f2c;fill-opacity:1;stroke-width:10;stroke-linecap:round;stroke-linejoin:bevel;stroke-dasharray:40, 500;paint-order:stroke fill markers"
         d="M 54.212844,190.07676 115.19924,129.2708 c -13.95221,0.65075 -24.055603,0.34624 -40.730445,-0.14948 -6.418925,-0.19082 -11.835348,-8.96223 -11.354103,-15.56392 1.127492,-7.5637 4.995099,-13.05942 13.404884,-14.86236 l 77.424154,0.108104 c 8.93644,0.74483 13.55578,5.366616 13.98334,12.487116 1.3972,26.78527 0.77089,52.95943 1.00935,79.68476 -5.99353,12.94351 -9.42552,11.95011 -14.31612,12.72002 -14.29884,-1.05343 -16.90387,-7.6385 -16.93246,-12.05033 -0.0964,-14.87601 -0.6877,-40.25254 -0.6877,-40.25254 -20.37586,20.17343 -40.869564,42.60442 -60.699863,61.17004 -6.736626,8.10273 -17.17356,3.86134 -22.936325,-2.93632 -5.843905,-10.6795 -2.396406,-12.09801 0.848892,-19.54913 z"
         id="path1" />
      <path
         style="fill:#f27f2c;fill-opacity:1;stroke-width:10;stroke-linecap:round;stroke-linejoin:bevel;stroke-dasharray:40, 500;paint-order:stroke fill markers"
         d="m 298.95376,112.12768 -60.9864,60.80597 c 13.95221,-0.65075 24.0556,-0.34624 40.73044,0.14948 6.41893,0.19082 11.83535,8.96222 11.3541,15.56391 -1.12749,7.5637 -4.99509,13.05943 -13.40488,14.86237 l -77.42415,-0.10811 c -8.93644,-0.74483 -13.55578,-5.36662 -13.98334,-12.48712 -1.3972,-26.78526 -0.77089,-52.95942 -1.00935,-79.68476 5.99353,-12.943507 9.42552,-11.950107 14.31612,-12.720017 14.29884,1.05343 16.90387,7.638497 16.93246,12.050327 0.0964,14.87602 0.6877,40.25255 0.6877,40.25255 20.37586,-20.17343 40.86956,-42.60443 60.69986,-61.170047 6.73663,-8.10273 17.17356,-3.86134 22.93633,2.93632 5.8439,10.679497 2.3964,12.098007 -0.84889,19.549127 z"
         id="path2" />
    </g>
  </g>
</svg>
